# xmcd
#
# Track frame offsets:
#	150
#	19595
#	38630
#	57712
#	75856
#	93842
#	117394
#	137115
#	169562
#	181710
#	199692
#
# Disc length: 2939 seconds
#
# Revision: 1
# Processed by: cddbd v1.5.1PL0 Copyright (c) Steve Scherf et al.
# Submitted via: audiograbber 1.80
#
DISCID=800b790b
DTITLE=Juni Fisher - Tumbleweed Letters
DYEAR=1900
DGENRE=
TTITLE0=Red Velvet Slippers
TTITLE1=Me and Martha Jane
TTITLE2=I Can't Complain
TTITLE3=Jersey Lilly
TTITLE4=Sierry Boots
TTITLE5=I Will Miss Ireland
TTITLE6=Chinaman Jack
TTITLE7=The Same River
TTITLE8=Just Doin' My Job
TTITLE9=(If This) Aint Jesse James
TTITLE10=Tumbleweed Letters
EXTD=
EXTT0=
EXTT1=
EXTT2=
EXTT3=
EXTT4=
EXTT5=
EXTT6=
EXTT7=
EXTT8=
EXTT9=
EXTT10=
PLAYORDER=
